<?xml version="1.0" encoding="utf-8"?>

<!-- Uploaded to: SVG Repo, www.svgrepo.com, Generator: SVG Repo Mixer Tools -->
<svg fill="#000000" height="800px" width="800px" version="1.1" id="Icons" xmlns="http://www.w3.org/2000/svg" xmlns:xlink="http://www.w3.org/1999/xlink" 
	 viewBox="0 0 32 32" xml:space="preserve">
<g>
	<path d="M29.5,13.1c-0.2-1.2-0.9-2.2-2-2.9c-1.8-1.2-3.3-2.9-4.3-4.8l-0.4-0.8c-0.2-0.4-0.7-0.6-1.1-0.5C21.3,4.1,21,4.5,21,5v15.8
		c-0.8-0.5-1.9-0.8-3-0.8c-2.8,0-5,1.8-5,4s2.2,4,5,4s5-1.8,5-4V8.6c1,1.2,2.1,2.3,3.4,3.2c0.6,0.4,1,1,1.1,1.7c0.1,0.7,0,1.4-0.4,2
		c-0.3,0.5-0.2,1.1,0.3,1.4c0.5,0.3,1.1,0.2,1.4-0.3C29.5,15.5,29.8,14.3,29.5,13.1z"/>
	<path d="M10,25H3c-0.6,0-1,0.4-1,1s0.4,1,1,1h7c0.6,0,1-0.4,1-1S10.6,25,10,25z"/>
	<path d="M10,20H3c-0.6,0-1,0.4-1,1s0.4,1,1,1h7c0.6,0,1-0.4,1-1S10.6,20,10,20z"/>
	<path d="M3,17h14c0.6,0,1-0.4,1-1s-0.4-1-1-1H3c-0.6,0-1,0.4-1,1S2.4,17,3,17z"/>
	<path d="M3,12h14c0.6,0,1-0.4,1-1s-0.4-1-1-1H3c-0.6,0-1,0.4-1,1S2.4,12,3,12z"/>
	<path d="M3,7h14c0.6,0,1-0.4,1-1s-0.4-1-1-1H3C2.4,5,2,5.4,2,6S2.4,7,3,7z"/>
</g>
</svg>